<svg width="24" height="24" viewBox="0 0 24 24" fill="none" xmlns="http://www.w3.org/2000/svg">
<path fill-rule="evenodd" clip-rule="evenodd" d="M1 4C1 3.44772 1.44772 3 2 3H22C22.5523 3 23 3.44772 23 4V9.65648C23 10.0793 22.734 10.4565 22.3357 10.5984C21.6663 10.837 21.1818 11.4844 21.1818 12.25C21.1818 13.0156 21.6663 13.663 22.3357 13.9016C22.734 14.0435 23 14.4207 23 14.8435V20.5C23 21.0523 22.5523 21.5 22 21.5H2C1.44772 21.5 1 21.0523 1 20.5V14.8435C1 14.4207 1.26597 14.0435 1.66429 13.9016C2.33369 13.663 2.81818 13.0156 2.81818 12.25C2.81818 11.491 2.34206 10.8483 1.68166 10.6047C1.28545 10.4718 1 10.0975 1 9.65648V4ZM3 5V9.0288C4.09047 9.68419 4.81818 10.8829 4.81818 12.25C4.81818 13.6171 4.09047 14.8158 3 15.4712V19.5H21V15.4712C19.9095 14.8158 19.1818 13.6171 19.1818 12.25C19.1818 10.8829 19.9095 9.68419 21 9.0288V5H3Z" fill="#FF6839"/>
<path fill-rule="evenodd" clip-rule="evenodd" d="M3 9.0288V5H21V9.0288C19.9095 9.68419 19.1818 10.8829 19.1818 12.25C19.1818 13.6171 19.9095 14.8158 21 15.4712V19.5H3V15.4712C4.09047 14.8158 4.81818 13.6171 4.81818 12.25C4.81818 10.8829 4.09047 9.68419 3 9.0288Z" fill="#FFEBE5"/>
<path d="M11.904 16.2929V7H12.4994V16.2929H11.904ZM13.1963 10.2525C13.177 10.0105 13.0862 9.82176 12.9241 9.68624C12.7644 9.55072 12.5211 9.48295 12.1944 9.48295C11.9863 9.48295 11.8157 9.50837 11.6826 9.55919C11.5519 9.60759 11.4551 9.67414 11.3922 9.75884C11.3293 9.84354 11.2966 9.94034 11.2942 10.0492C11.2894 10.1388 11.3051 10.2199 11.3414 10.2925C11.3801 10.3626 11.4406 10.4268 11.5229 10.4848C11.6052 10.5405 11.7104 10.5913 11.8387 10.6373C11.967 10.6833 12.1194 10.7244 12.2961 10.7607L12.9059 10.8914C13.3173 10.9785 13.6695 11.0935 13.9623 11.2363C14.2551 11.3791 14.4947 11.5472 14.681 11.7408C14.8674 11.932 15.0041 12.1474 15.0912 12.387C15.1808 12.6266 15.2267 12.8879 15.2292 13.1711C15.2267 13.6599 15.1045 14.0738 14.8625 14.4126C14.6205 14.7514 14.2745 15.0091 13.8243 15.1858C13.3766 15.3624 12.8382 15.4508 12.209 15.4508C11.5628 15.4508 10.9989 15.3552 10.5174 15.164C10.0382 14.9728 9.66551 14.6788 9.39931 14.2819C9.13552 13.8826 9.00242 13.3719 9 12.75H10.9167C10.9288 12.9775 10.9856 13.1687 11.0873 13.3235C11.1889 13.4784 11.3317 13.5958 11.5156 13.6757C11.702 13.7555 11.9234 13.7955 12.1799 13.7955C12.3953 13.7955 12.5756 13.7688 12.7208 13.7156C12.866 13.6624 12.9761 13.5885 13.0511 13.4942C13.1262 13.3998 13.1649 13.2921 13.1673 13.1711C13.1649 13.0573 13.1274 12.9581 13.0548 12.8734C12.9846 12.7863 12.8684 12.7089 12.7063 12.6411C12.5441 12.5709 12.3251 12.5056 12.0492 12.4451L11.3087 12.2854C10.6505 12.1426 10.1314 11.9042 9.75142 11.5702C9.3739 11.2338 9.18634 10.7753 9.18876 10.1944C9.18634 9.72254 9.31218 9.30992 9.56629 8.9566C9.82281 8.60085 10.1773 8.32376 10.6299 8.12532C11.0849 7.92687 11.6064 7.82765 12.1944 7.82765C12.7946 7.82765 13.3137 7.92808 13.7517 8.12895C14.1898 8.32981 14.5274 8.61295 14.7645 8.97838C15.0041 9.34138 15.1251 9.7661 15.1275 10.2525H13.1963Z" fill="#FF6839"/>
</svg>
